<svg xmlns="http://www.w3.org/2000/svg" viewBox="0 0 800 800" role="img" aria-labelledby="title desc">
<title id="title">DetCordon seal</title>
<desc id="desc">RAGBAZ Signal orange cryptographic containment seal on a dark blue-cyan field.</desc>
<defs>
  <filter id="glow" x="-20%" y="-20%" width="140%" height="140%">
    <feGaussianBlur stdDeviation="3" result="blur"/>
    <feMerge><feMergeNode in="blur"/><feMergeNode in="SourceGraphic"/></feMerge>
  </filter>
</defs>
<rect width="800" height="800" rx="36" fill="#001C2E"/>
<g fill="none" stroke="#E4573D" stroke-linecap="round" stroke-linejoin="round">
  <circle cx="400" cy="400" r="318" stroke-width="12" stroke-dasharray="28 28" filter="url(#glow)"/>
  <circle cx="400" cy="400" r="281" stroke-width="4"/>
  <circle cx="400" cy="400" r="252" stroke-width="7" stroke-dasharray="2 15" opacity=".95"/>
  <g stroke-width="5">
    <path d="M261.4 320 C307 307 350 255 400 128 C450 255 493 307 538.6 320"/>
    <path d="M261.4 320 C307 307 350 255 400 128 C450 255 493 307 538.6 320" transform="rotate(60 400 400)"/>
    <path d="M261.4 320 C307 307 350 255 400 128 C450 255 493 307 538.6 320" transform="rotate(120 400 400)"/>
    <path d="M261.4 320 C307 307 350 255 400 128 C450 255 493 307 538.6 320" transform="rotate(180 400 400)"/>
    <path d="M261.4 320 C307 307 350 255 400 128 C450 255 493 307 538.6 320" transform="rotate(240 400 400)"/>
    <path d="M261.4 320 C307 307 350 255 400 128 C450 255 493 307 538.6 320" transform="rotate(300 400 400)"/>
  </g>
  <polygon points="400,226 550.7,313 550.7,487 400,574 249.3,487 249.3,313" stroke-width="10" filter="url(#glow)"/>
  <polygon points="400,246 533.4,323 533.4,477 400,554 266.6,477 266.6,323" stroke-width="4"/>
  <circle cx="400" cy="400" r="55" stroke-width="4"/>
</g>
<circle cx="400" cy="400" r="24" fill="#E4573D" filter="url(#glow)"/>
</svg>
